<svg width="62" height="38" viewBox="0 0 62 38" fill="none" xmlns="http://www.w3.org/2000/svg">
<path d="M60.2969 6.706V33.5532C60.2969 35.21 58.9537 36.5532 57.2969 36.5532H4.70312C3.04627 36.5532 1.70312 35.21 1.70312 33.5532V6.66302C1.70312 3.80516 5.32041 2.56591 7.07288 4.82339L15.7257 15.9696C17.051 17.6768 19.6921 17.4649 20.7282 15.5682L27.7554 2.70465C28.8905 0.626663 31.8728 0.62117 33.0156 2.69496L40.6353 16.522C41.678 18.414 44.3184 18.617 45.638 16.9066L54.9216 4.87348C56.6701 2.60718 60.2969 3.84362 60.2969 6.706Z" fill="#8647D4"/>
<path d="M60.2969 6.706V33.5532C60.2969 35.21 58.9537 36.5532 57.2969 36.5532H4.70312C3.04627 36.5532 1.70312 35.21 1.70312 33.5532V6.66302C1.70312 3.80516 5.32041 2.56591 7.07288 4.82339L15.7257 15.9696C17.051 17.6768 19.6921 17.4649 20.7282 15.5682L27.7554 2.70465C28.8905 0.626663 31.8728 0.62117 33.0156 2.69496L40.6353 16.522C41.678 18.414 44.3184 18.617 45.638 16.9066L54.9216 4.87348C56.6701 2.60718 60.2969 3.84362 60.2969 6.706Z" fill="url(#paint0_linear_198_394)" fill-opacity="0.15"/>
<path d="M60.7969 33.5532V6.706C60.7969 3.36655 56.5656 1.92404 54.5257 4.56806L45.2422 16.6011C44.1425 18.0265 41.9421 17.8574 41.0732 16.2806L33.4535 2.45364C32.1202 0.0342178 28.6409 0.0406268 27.3166 2.46494L20.2894 15.3285C19.426 16.9091 17.2251 17.0857 16.1206 15.663L7.46784 4.51678C5.42329 1.88306 1.20312 3.32886 1.20312 6.66302V33.5532C1.20312 35.4862 2.77013 37.0532 4.70312 37.0532H57.2969C59.2299 37.0532 60.7969 35.4862 60.7969 33.5532Z" stroke="black" stroke-opacity="0.15"/>
<defs>
<linearGradient id="paint0_linear_198_394" x1="32.87" y1="-7.08045" x2="5.44315" y2="42.1632" gradientUnits="userSpaceOnUse">
<stop stop-color="white"/>
<stop offset="1" stop-color="white" stop-opacity="0"/>
</linearGradient>
</defs>
</svg>
