<svg id="ev69mYXHJAn1" xmlns="http://www.w3.org/2000/svg" xmlns:xlink="http://www.w3.org/1999/xlink" viewBox="0 0 75 75" shape-rendering="geometricPrecision" text-rendering="geometricPrecision">
<style><![CDATA[
#ev69mYXHJAn2_tr {animation: ev69mYXHJAn2_tr__tr 2000ms linear infinite normal forwards}@keyframes ev69mYXHJAn2_tr__tr { 0% {transform: translate(37.500001px,37.5px) rotate(0deg);animation-timing-function: cubic-bezier(0.42,0,0.58,1)} 100% {transform: translate(37.500001px,37.5px) rotate(360deg)}} #ev69mYXHJAn2_ts {animation: ev69mYXHJAn2_ts__ts 2000ms linear infinite normal forwards}@keyframes ev69mYXHJAn2_ts__ts { 0% {transform: scale(0.5,0.5)} 50% {transform: scale(1,1)} 100% {transform: scale(0.5,0.5)}}
]]></style>
<defs><linearGradient id="ev69mYXHJAn4-fill" x1="32.87" y1="-7.08045" x2="5.44315" y2="42.1632" spreadMethod="pad" gradientUnits="userSpaceOnUse" gradientTransform="translate(0 0)"><stop id="ev69mYXHJAn4-fill-0" offset="0%" stop-color="#fff"/><stop id="ev69mYXHJAn4-fill-1" offset="100%" stop-color="rgba(255,255,255,0)"/></linearGradient></defs><g id="ev69mYXHJAn2_tr" transform="translate(37.500001,37.5) rotate(0)"><g id="ev69mYXHJAn2_ts" transform="scale(0.5,0.5)"><g transform="translate(-31.00001,-18.848041)"><path d="M60.2969,6.706v26.8472c0,1.6568-1.3432,3-3,3h-52.59378c-1.65685,0-3-1.3432-3-3v-26.89018c0-2.85786,3.61729-4.09711,5.36976-1.83963L15.7257,15.9696c1.3253,1.7072,3.9664,1.4953,5.0025-.4014L27.7554,2.70465c1.1351-2.077987,4.1174-2.08348,5.2602-.00969L40.6353,16.522c1.0427,1.892,3.6831,2.095,5.0027.3846L54.9216,4.87348c1.7485-2.2663,5.3753-1.02986,5.3753,1.83252Z" fill="#8647d4"/><path d="M60.2969,6.706v26.8472c0,1.6568-1.3432,3-3,3h-52.59378c-1.65685,0-3-1.3432-3-3v-26.89018c0-2.85786,3.61729-4.09711,5.36976-1.83963L15.7257,15.9696c1.3253,1.7072,3.9664,1.4953,5.0025-.4014L27.7554,2.70465c1.1351-2.077987,4.1174-2.08348,5.2602-.00969L40.6353,16.522c1.0427,1.892,3.6831,2.095,5.0027.3846L54.9216,4.87348c1.7485-2.2663,5.3753-1.02986,5.3753,1.83252Z" fill="url(#ev69mYXHJAn4-fill)" fill-opacity="0.15"/></g></g></g></svg>
